<?xml version="1.0" standalone="no"?>
<!DOCTYPE svg PUBLIC "-//W3C//DTD SVG 20010904//EN"
 "http://www.w3.org/TR/2001/REC-SVG-20010904/DTD/svg10.dtd">
<svg version="1.0" xmlns="http://www.w3.org/2000/svg"
 width="640.000000pt" height="640.000000pt" viewBox="0 0 640.000000 640.000000"
 preserveAspectRatio="xMidYMid meet">
<metadata>
Created by potrace 1.14, written by Peter Selinger 2001-2017
</metadata>
<g transform="translate(0.000000,640.000000) scale(0.100000,-0.100000)"
fill="#000000" stroke="none">
<path d="M478 4219 c-86 -13 -125 -46 -181 -154 -15 -27 -31 -62 -36 -77 -7
-19 -18 -28 -32 -28 -53 0 -116 -79 -153 -192 -58 -174 -75 -310 -71 -578 2
-113 6 -216 8 -230 3 -14 8 -47 11 -75 7 -60 9 -71 31 -161 36 -143 105 -256
168 -272 25 -7 37 -21 66 -78 88 -172 116 -187 359 -190 111 -1 184 2 203 9
41 16 114 97 149 167 55 110 113 312 136 479 3 25 8 57 10 71 2 14 6 72 10
130 3 58 8 108 12 112 4 4 40 9 80 12 68 6 110 9 277 21 39 2 113 7 165 10 52
3 124 7 160 10 36 2 119 7 185 10 66 3 158 8 205 10 530 30 1422 22 2315 -21
454 -21 669 -35 677 -42 3 -4 9 -59 13 -122 3 -63 11 -144 16 -180 6 -36 12
-74 14 -85 34 -214 111 -421 190 -513 66 -76 88 -82 287 -79 243 4 271 19 359
191 29 57 41 71 66 78 64 17 132 129 169 278 22 91 19 73 28 150 5 36 11 74
13 85 3 11 6 112 8 225 4 242 -9 358 -55 528 -44 159 -103 239 -184 246 -5 1
-21 29 -36 64 -40 95 -83 150 -136 174 -40 17 -68 20 -217 20 -110 1 -185 -3
-209 -11 -68 -22 -144 -127 -209 -286 -12 -30 -67 -245 -73 -291 -4 -22 -9
-51 -11 -64 -3 -14 -8 -54 -11 -90 -3 -36 -7 -81 -9 -100 -2 -19 -4 -48 -4
-63 -1 -22 -5 -27 -18 -23 -10 2 -63 8 -118 11 -55 4 -113 9 -130 10 -16 2
-70 6 -120 9 -49 4 -108 9 -131 11 -22 2 -85 7 -140 10 -54 3 -124 8 -154 11
-30 3 -93 7 -140 9 -47 2 -125 6 -175 9 -488 31 -1047 34 -1605 11 -273 -12
-425 -20 -560 -29 -36 -3 -112 -8 -170 -11 -58 -3 -125 -8 -150 -10 -25 -2
-85 -7 -135 -10 -49 -3 -110 -7 -135 -10 -25 -2 -80 -7 -122 -10 -76 -6 -78
-5 -79 17 -15 283 -95 632 -170 740 -11 14 -19 30 -19 36 0 5 -24 32 -54 60
-35 34 -65 53 -89 57 -49 9 -292 12 -349 4z"/>
</g>
</svg>
